#N canvas 0 23 2560 1488 12;
#X obj 1092 37 notein;
#X obj 1092 68 pack 0 0;
#X obj 1092 98 poly 8 1;
#X obj 1092 133 pack 0 0 0;
#X obj 1092 163 route 1 2 3 4 5 6 7 8;
#X obj 7 296 unpack 0 0;
#X obj 7 415 temperament;
#X floatatom 118 372 5 0 136 0 - - -;
#X text 117 297 0-136 selects different temperaments;
#X obj 914 1042 dac~;
#X obj 926 1010 *~;
#X obj 959 1045 hsl 128 15 0 1 0 0 empty empty empty -2 -8 0 10 -262144
-1 -1 12700 1;
#X obj 956 1094 line~;
#X msg 956 1068 \$1 5;
#X obj 7 511 osc~;
#X obj 118 317 loadbang;
#X text 590 65 infrasonic sine synthesizer with adjustable temperament
;
#X msg 7 324 127 \$1;
#X obj 7 349 -;
#X obj 7 375 * -1;
#X text 14 276 to infrasound;
#X text 207 506 temperament control;
#X obj 7 661 *~;
#X obj 73 513 sel 0;
#X text 1096 1043 NO MASTERS;
#X msg 105 577 1 1000;
#X msg 73 548 0 1000;
#X obj 73 605 line;
#X msg 118 345 11;
#X text 111 605 ar envelope;
#X obj 387 300 unpack 0 0;
#X obj 387 419 temperament;
#X floatatom 498 376 5 0 136 0 - - -;
#X text 497 301 0-136 selects different temperaments;
#X obj 387 515 osc~;
#X obj 498 321 loadbang;
#X msg 387 328 127 \$1;
#X obj 387 353 -;
#X obj 387 379 * -1;
#X text 394 280 to infrasound;
#X text 587 510 temperament control;
#X obj 387 665 *~;
#X obj 453 517 sel 0;
#X msg 486 574 1 1000;
#X msg 453 547 0 1000;
#X obj 453 609 line;
#X msg 498 349 11;
#X text 491 609 ar envelope;
#X obj 767 306 unpack 0 0;
#X obj 767 425 temperament;
#X floatatom 878 382 5 0 136 0 - - -;
#X text 877 307 0-136 selects different temperaments;
#X obj 767 521 osc~;
#X obj 878 327 loadbang;
#X msg 767 334 127 \$1;
#X obj 767 359 -;
#X obj 767 385 * -1;
#X text 774 286 to infrasound;
#X text 967 516 temperament control;
#X obj 767 671 *~;
#X obj 833 523 sel 0;
#X obj 833 615 line;
#X msg 878 355 11;
#X text 871 615 ar envelope;
#X obj 1147 310 unpack 0 0;
#X obj 1147 429 temperament;
#X floatatom 1258 386 5 0 136 0 - - -;
#X text 1257 311 0-136 selects different temperaments;
#X obj 1147 525 osc~;
#X obj 1258 331 loadbang;
#X msg 1147 338 127 \$1;
#X obj 1147 363 -;
#X obj 1147 389 * -1;
#X text 1154 290 to infrasound;
#X text 1347 520 temperament control;
#X obj 1147 675 *~;
#X obj 1213 527 sel 0;
#X obj 1213 619 line;
#X msg 1258 359 11;
#X text 1251 619 ar envelope;
#X obj 1545 312 unpack 0 0;
#X obj 1545 431 temperament;
#X floatatom 1656 388 5 0 136 0 - - -;
#X text 1655 313 0-136 selects different temperaments;
#X obj 1545 527 osc~;
#X obj 1656 333 loadbang;
#X msg 1545 340 127 \$1;
#X obj 1545 365 -;
#X obj 1545 391 * -1;
#X text 1552 292 to infrasound;
#X text 1745 522 temperament control;
#X obj 1545 677 *~;
#X obj 1611 529 sel 0;
#X obj 1611 621 line;
#X msg 1656 361 11;
#X text 1649 621 ar envelope;
#X obj 1925 316 unpack 0 0;
#X obj 1925 435 temperament;
#X floatatom 2036 392 5 0 136 0 - - -;
#X text 2035 317 0-136 selects different temperaments;
#X obj 1925 531 osc~;
#X obj 2036 337 loadbang;
#X msg 1925 344 127 \$1;
#X obj 1925 369 -;
#X obj 1925 395 * -1;
#X text 1932 296 to infrasound;
#X text 2125 526 temperament control;
#X obj 1925 681 *~;
#X obj 1991 533 sel 0;
#X obj 1991 625 line;
#X msg 2036 365 11;
#X text 2029 625 ar envelope;
#X obj 2305 322 unpack 0 0;
#X obj 2305 441 temperament;
#X floatatom 2416 398 5 0 136 0 - - -;
#X text 2415 323 0-136 selects different temperaments;
#X obj 2305 537 osc~;
#X obj 2416 343 loadbang;
#X msg 2305 350 127 \$1;
#X obj 2305 375 -;
#X obj 2305 401 * -1;
#X text 2312 302 to infrasound;
#X text 2505 532 temperament control;
#X obj 2305 687 *~;
#X obj 2371 539 sel 0;
#X obj 2371 631 line;
#X msg 2416 371 11;
#X text 2409 631 ar envelope;
#X obj 2685 326 unpack 0 0;
#X obj 2685 445 temperament;
#X floatatom 2796 402 5 0 136 0 - - -;
#X text 2795 327 0-136 selects different temperaments;
#X obj 2685 541 osc~;
#X obj 2796 347 loadbang;
#X msg 2685 354 127 \$1;
#X obj 2685 379 -;
#X obj 2685 405 * -1;
#X text 2692 306 to infrasound;
#X text 2885 536 temperament control;
#X obj 2685 691 *~;
#X obj 2751 543 sel 0;
#X obj 2751 635 line;
#X msg 2796 375 11;
#X text 2789 635 ar envelope;
#X floatatom 17 543 5 0 0 0 - - -;
#X floatatom 73 657 5 0 0 0 - - -;
#X floatatom 402 545 5 0 0 0 - - -;
#X floatatom 781 550 5 0 0 0 - - -;
#X msg 833 554 0 1000;
#X msg 865 583 1 1000;
#X msg 1213 558 0 1000;
#X msg 1245 587 1 1000;
#X msg 1611 560 0 1000;
#X msg 1643 589 1 1000;
#X msg 1991 564 0 1000;
#X msg 2023 593 1 1000;
#X msg 2371 570 0 1000;
#X msg 2403 599 1 1000;
#X msg 2751 574 0 1000;
#X msg 2783 603 1 1000;
#X floatatom 1162 554 5 0 0 0 - - -;
#X floatatom 1566 558 5 0 0 0 - - -;
#X floatatom 1937 561 5 0 0 0 - - -;
#X floatatom 2322 570 5 0 0 0 - - -;
#X floatatom 2706 576 5 0 0 0 - - -;
#X connect 0 0 1 0;
#X connect 0 1 1 1;
#X connect 1 0 2 0;
#X connect 2 0 3 0;
#X connect 2 1 3 1;
#X connect 2 2 3 2;
#X connect 3 0 4 0;
#X connect 4 0 5 0;
#X connect 4 1 30 0;
#X connect 4 2 48 0;
#X connect 4 3 64 0;
#X connect 4 4 80 0;
#X connect 4 5 96 0;
#X connect 4 6 112 0;
#X connect 4 7 128 0;
#X connect 5 0 17 0;
#X connect 5 1 23 0;
#X connect 6 0 14 0;
#X connect 6 0 144 0;
#X connect 7 0 6 1;
#X connect 10 0 9 1;
#X connect 10 0 9 0;
#X connect 11 0 13 0;
#X connect 12 0 10 1;
#X connect 13 0 12 0;
#X connect 14 0 22 0;
#X connect 15 0 28 0;
#X connect 17 0 18 0;
#X connect 18 0 19 0;
#X connect 19 0 6 0;
#X connect 22 0 10 0;
#X connect 23 0 26 0;
#X connect 23 1 25 0;
#X connect 25 0 27 0;
#X connect 26 0 27 0;
#X connect 27 0 22 1;
#X connect 27 0 145 0;
#X connect 28 0 7 0;
#X connect 30 0 36 0;
#X connect 30 1 42 0;
#X connect 31 0 34 0;
#X connect 31 0 146 0;
#X connect 32 0 31 1;
#X connect 34 0 41 0;
#X connect 35 0 46 0;
#X connect 36 0 37 0;
#X connect 37 0 38 0;
#X connect 38 0 31 0;
#X connect 41 0 10 0;
#X connect 42 0 44 0;
#X connect 42 1 43 0;
#X connect 43 0 45 0;
#X connect 44 0 45 0;
#X connect 45 0 41 1;
#X connect 46 0 32 0;
#X connect 48 0 54 0;
#X connect 48 1 60 0;
#X connect 49 0 52 0;
#X connect 49 0 147 0;
#X connect 50 0 49 1;
#X connect 52 0 59 0;
#X connect 53 0 62 0;
#X connect 54 0 55 0;
#X connect 55 0 56 0;
#X connect 56 0 49 0;
#X connect 59 0 10 0;
#X connect 60 0 148 0;
#X connect 60 1 149 0;
#X connect 61 0 59 1;
#X connect 62 0 50 0;
#X connect 64 0 70 0;
#X connect 64 1 76 0;
#X connect 65 0 68 0;
#X connect 65 0 160 0;
#X connect 66 0 65 1;
#X connect 68 0 75 0;
#X connect 69 0 78 0;
#X connect 70 0 71 0;
#X connect 71 0 72 0;
#X connect 72 0 65 0;
#X connect 75 0 10 0;
#X connect 76 0 150 0;
#X connect 76 1 151 0;
#X connect 77 0 75 1;
#X connect 78 0 66 0;
#X connect 80 0 86 0;
#X connect 80 1 92 0;
#X connect 81 0 84 0;
#X connect 81 0 161 0;
#X connect 82 0 81 1;
#X connect 84 0 91 0;
#X connect 85 0 94 0;
#X connect 86 0 87 0;
#X connect 87 0 88 0;
#X connect 88 0 81 0;
#X connect 91 0 10 0;
#X connect 92 0 152 0;
#X connect 92 1 153 0;
#X connect 93 0 91 1;
#X connect 94 0 82 0;
#X connect 96 0 102 0;
#X connect 96 1 108 0;
#X connect 97 0 100 0;
#X connect 97 0 162 0;
#X connect 98 0 97 1;
#X connect 100 0 107 0;
#X connect 101 0 110 0;
#X connect 102 0 103 0;
#X connect 103 0 104 0;
#X connect 104 0 97 0;
#X connect 107 0 10 0;
#X connect 108 0 154 0;
#X connect 108 1 155 0;
#X connect 109 0 107 1;
#X connect 110 0 98 0;
#X connect 112 0 118 0;
#X connect 112 1 124 0;
#X connect 113 0 116 0;
#X connect 113 0 163 0;
#X connect 114 0 113 1;
#X connect 116 0 123 0;
#X connect 117 0 126 0;
#X connect 118 0 119 0;
#X connect 119 0 120 0;
#X connect 120 0 113 0;
#X connect 123 0 10 0;
#X connect 124 0 156 0;
#X connect 124 1 157 0;
#X connect 125 0 123 1;
#X connect 126 0 114 0;
#X connect 128 0 134 0;
#X connect 128 1 140 0;
#X connect 129 0 132 0;
#X connect 129 0 164 0;
#X connect 130 0 129 1;
#X connect 132 0 139 0;
#X connect 133 0 142 0;
#X connect 134 0 135 0;
#X connect 135 0 136 0;
#X connect 136 0 129 0;
#X connect 139 0 10 0;
#X connect 140 0 158 0;
#X connect 140 1 159 0;
#X connect 141 0 139 1;
#X connect 142 0 130 0;
#X connect 148 0 61 0;
#X connect 149 0 61 0;
#X connect 150 0 77 0;
#X connect 151 0 77 0;
#X connect 152 0 93 0;
#X connect 153 0 93 0;
#X connect 154 0 109 0;
#X connect 155 0 109 0;
#X connect 156 0 125 0;
#X connect 157 0 125 0;
#X connect 158 0 141 0;
#X connect 159 0 141 0;
